<?xml version="1.0" encoding="UTF-8" standalone="no"?><svg xmlns="http://www.w3.org/2000/svg" xmlns:xlink="http://www.w3.org/1999/xlink" fill="#000000" height="502" preserveAspectRatio="xMidYMid meet" version="1" viewBox="-1.0 -1.0 502.0 502.0" width="502" zoomAndPan="magnify"><g><g id="change1_1"><path d="M486 45H501V455H486z" fill="#191919"/></g></g><g><g id="change1_2"><path d="M-1 45H14V455H-1z" fill="#191919"/></g></g><g><g id="change1_5"><path d="M45 -1H455V14H45z" fill="#191919"/></g></g><g><g id="change1_8"><path d="M45 486H455V501H45z" fill="#191919"/></g></g><g><g id="change1_6"><path d="M486 14L486 45 501 45 501 -1 455 -1 455 14z" fill="#191919"/></g></g><g><g id="change1_7"><path d="M14 14L45 14 45 -1 -1 -1 -1 45 14 45z" fill="#191919"/></g></g><g><g id="change1_3"><path d="M486 486L455 486 455 501 501 501 501 455 486 455z" fill="#191919"/></g></g><g><g id="change1_4"><path d="M14 486L14 455 -1 455 -1 501 45 501 45 486z" fill="#191919"/></g></g></svg>