<?xml version="1.0" encoding="UTF-8" standalone="no"?><svg xmlns="http://www.w3.org/2000/svg" xmlns:xlink="http://www.w3.org/1999/xlink" fill="#ffffff" height="1376.7" preserveAspectRatio="xMidYMid meet" version="1" viewBox="0.0 0.0 1481.9 1376.7" width="1481.9" zoomAndPan="magnify"><g id="change1_1"><path d="M1481.871582,688.3305664c0-39.4824219-19.8808594-77.6601562-59.0908203-113.4716797 c-35.2426758-32.1885986-84.7175293-61.2593384-147.1777344-86.5043335 c62.4602051-25.2446899,111.9350586-54.3153687,147.1777344-86.5039673 c39.2099609-35.8120117,59.0908203-73.9892578,59.0908203-113.472168c0-39.4824219-19.8808594-77.659668-59.0908203-113.4716797 c-37.4638672-34.2177734-91.0058594-64.9125977-159.1376953-91.2324219C1123.9672852,29.7163086,938.3334961,0,740.9360352,0 C543.5390625,0,357.9042969,29.7163086,218.2285156,83.6743164 c-68.1318359,26.3198242-121.6733398,57.0146484-159.1376953,91.2324219C19.8808594,210.71875,0,248.8959961,0,288.378418 c0,39.4829102,19.8808594,77.6601562,59.0908203,113.472168c35.2431641,32.1885986,84.7175903,61.2592773,147.1776733,86.5039673 c-62.460083,25.2449951-111.9345093,54.3157349-147.1776733,86.5043335C19.8808594,610.6704102,0,648.8481445,0,688.3305664 c0,39.4829102,19.8808594,77.6606445,59.0908203,113.472168c35.2432251,32.1881714,84.7177124,61.2588501,147.1777954,86.5039062 c-62.460083,25.2450562-111.9345703,54.3157349-147.1777954,86.5039062C19.8808594,1010.6230469,0,1048.8007812,0,1088.2832031 s19.8808594,77.6601562,59.0908203,113.4716797c37.4643555,34.2177734,91.0058594,64.9121094,159.1376953,91.2324219 c139.6757812,53.9580078,325.3105469,83.6738281,522.7075195,83.6738281c197.3974609,0,383.03125-29.7158203,522.7070312-83.6738281 c68.1318359-26.3203125,121.6738281-57.0146484,159.1376953-91.2324219 c39.2099609-35.8115234,59.0908203-73.9892578,59.0908203-113.4716797s-19.8808594-77.6601562-59.0908203-113.4726562 c-35.2426758-32.1881714-84.7175293-61.2588501-147.1777344-86.5039062 c62.4602051-25.2450562,111.9350586-54.3157349,147.1777344-86.5039062 C1461.9907227,765.9912109,1481.871582,727.8134766,1481.871582,688.3305664z M1418.0600586,979.9794922 c37.6972656,34.4306641,56.8115234,70.8691406,56.8115234,108.3037109s-19.1142578,73.8730469-56.8115234,108.3037109 c-36.8193359,33.6279297-89.6220703,63.8652344-156.9394531,89.8710938 c-138.890625,53.6542969-323.6289062,83.203125-520.1845703,83.203125s-381.2944336-29.5488281-520.1845703-83.203125 c-67.3178711-26.0058594-120.1201172-56.2431641-156.9399414-89.8710938C26.1142578,1162.15625,7,1125.7177734,7,1088.2832031 s19.1142578-73.8730469,56.8115234-108.3037109c35.901123-32.789856,87.0038452-62.3532104,151.9349365-87.9146729 c0.8285522,0.3230591,1.6491089,0.6485596,2.4820557,0.9703369 c139.6757812,53.9580078,325.3100586,83.6738281,522.7075195,83.6738281s383.03125-29.7158203,522.7070312-83.6738281 c0.8330078-0.3217773,1.6535645-0.6472778,2.4821777-0.9703979 C1331.0560303,917.6262817,1382.1594238,947.1896362,1418.0600586,979.9794922z M225.4725342,888.3066406 c138.3421631-52.5123901,321.1235352-81.4023438,515.463501-81.4023438s377.1208496,28.8899536,515.463501,81.4023438 c-138.3426514,52.5123901-321.1235352,81.4023438-515.463501,81.4023438S363.8146973,940.8190308,225.4725342,888.3066406z M1266.1252441,884.5485229c-0.8286133-0.3231201-1.6491699-0.6486206-2.4821777-0.9703979 c-139.6757812-53.9580078-325.3095703-83.6738281-522.7070312-83.6738281s-383.0317383,29.7158203-522.7075195,83.6738281 c-0.8329468,0.3217773-1.6535034,0.6472778-2.4820557,0.9703369 c-64.9310913-25.5614624-116.0338135-55.1248169-151.9349365-87.9146729C26.1142578,762.203125,7,725.7646484,7,688.3305664 s19.1142578-73.8725586,56.8115234-108.3032227c35.901001-32.7897339,87.0036011-62.3529663,151.9343262-87.914856 c0.8287354,0.3231812,1.6495361,0.6486816,2.482666,0.97052c139.6757812,53.9584961,325.3105469,83.6743164,522.7075195,83.6743164 c197.3974609,0,383.03125-29.7158203,522.7070312-83.6743164c0.833252-0.3218994,1.6540527-0.6474609,2.4829102-0.9706421 c64.9304199,25.5618896,116.0334473,55.1252441,151.934082,87.914978 c37.6972656,34.4306641,56.8115234,70.8691406,56.8115234,108.3032227s-19.1142578,73.8725586-56.8115234,108.3032227 C1382.1594238,829.423645,1331.0560303,858.9869995,1266.1252441,884.5485229z"/></g></svg>