<?xml version="1.0" encoding="UTF-8" standalone="no"?><svg xmlns="http://www.w3.org/2000/svg" xmlns:xlink="http://www.w3.org/1999/xlink" fill="#000000" height="400.4" preserveAspectRatio="xMidYMid meet" version="1" viewBox="0.0 0.0 369.8 400.4" width="369.8" zoomAndPan="magnify"><g id="change1_1"><path d="M362.5447,307.6766L184.9069,0L7.2701,307.6755C2.4818,314.2754,0,321.2614,0,328.4893 c0,20.6933,20.2773,39.416,57.0967,52.7188c34.2631,12.3788,79.6538,19.1963,127.8105,19.1963 c48.1568,0,93.5474-6.8174,127.8105-19.1962c36.8189-13.3028,57.0962-32.0254,57.0962-52.7188 C369.8139,321.2618,367.3324,314.2761,362.5447,307.6766z M329.7502,282.8755c-5.2084-2.5076-10.8842-4.8832-17.0325-7.1045 c-34.2626-12.3789-79.6533-19.1963-127.8105-19.1963s-93.5479,6.8174-127.8105,19.1963c-6.1486,2.2214-11.8244,4.5971-17.033,7.1047 L184.9069,32L329.7502,282.8755z M184.9072,384.4043C85.3677,384.4043,16,354.9366,16,328.4893 c0-26.4468,69.3677-55.9146,168.9072-55.9146c99.5391,0,168.9068,29.4678,168.9067,55.9146 C353.8139,354.9365,284.4463,384.4043,184.9072,384.4043z" fill="#258730"/></g></svg>